<?xml version="1.0" encoding="UTF-8" standalone="no"?>
<!DOCTYPE svg PUBLIC "-//W3C//DTD SVG 1.1//EN"
 "http://www.w3.org/Graphics/SVG/1.1/DTD/svg11.dtd">
<!-- Generated by graphviz version 2.40.1 (20161225.0304)
 -->
<!-- Title: blogs Pages: 1 -->
<svg width="382pt" height="1052pt"
 viewBox="0.00 0.00 382.00 1052.00" xmlns="http://www.w3.org/2000/svg" xmlns:xlink="http://www.w3.org/1999/xlink">
<g id="graph0" class="graph" transform="scale(1 1) rotate(0) translate(4 1048)">
<title>blogs</title>
<polygon fill="#ffffff" stroke="transparent" points="-4,4 -4,-1048 378,-1048 378,4 -4,4"/>
<!-- blogs -->
<g id="node1" class="node">
<title>blogs</title>
<polygon fill="#efefef" stroke="transparent" points="98,-574 98,-620 325,-620 325,-574 98,-574"/>
<polygon fill="none" stroke="#000000" points="98,-574 98,-620 325,-620 325,-574 98,-574"/>
<text text-anchor="start" x="168.9852" y="-597.8" font-family="Arial Bold" font-size="18.00" fill="#000000">blogs</text>
<text text-anchor="start" x="211.998" y="-597.8" font-family="Arial" font-size="14.00" fill="#000000"> </text>
<text text-anchor="start" x="215.8886" y="-597.8" font-family="Arial" font-size="14.00" fill="#666666">[table]</text>
<text text-anchor="start" x="191.6753" y="-583.4" font-family="Arial" font-size="14.00" fill="#333333">ブログ</text>
<polygon fill="none" stroke="#000000" points="98,-544 98,-574 325,-574 325,-544 98,-544"/>
<text text-anchor="start" x="105" y="-555.4" font-family="Arial" font-size="14.00" fill="#000000">id </text>
<text text-anchor="start" x="119.7798" y="-555.4" font-family="Arial" font-size="14.00" fill="#666666">[integer]</text>
<polygon fill="none" stroke="#000000" points="98,-514 98,-544 325,-544 325,-514 98,-514"/>
<text text-anchor="start" x="105" y="-525.4" font-family="Arial" font-size="14.00" fill="#000000">user_id </text>
<text text-anchor="start" x="154.7882" y="-525.4" font-family="Arial" font-size="14.00" fill="#666666">[integer]</text>
<text text-anchor="start" x="205.3576" y="-525.4" font-family="Arial" font-size="14.00" fill="#000000"> 作成者</text>
<polygon fill="none" stroke="#000000" points="98,-484 98,-514 325,-514 325,-484 98,-484"/>
<text text-anchor="start" x="105" y="-495.4" font-family="Arial" font-size="14.00" fill="#000000">published_dt </text>
<text text-anchor="start" x="188.2552" y="-495.4" font-family="Arial" font-size="14.00" fill="#666666">[date]</text>
<text text-anchor="start" x="223.2748" y="-495.4" font-family="Arial" font-size="14.00" fill="#000000"> 発行日</text>
<polygon fill="none" stroke="#000000" points="98,-454 98,-484 325,-484 325,-454 98,-454"/>
<text text-anchor="start" x="105" y="-465.4" font-family="Arial" font-size="14.00" fill="#000000">status </text>
<text text-anchor="start" x="146.237" y="-465.4" font-family="Arial" font-size="14.00" fill="#666666">[integer]</text>
<text text-anchor="start" x="196.8064" y="-465.4" font-family="Arial" font-size="14.00" fill="#000000"> ステータス</text>
<polygon fill="none" stroke="#000000" points="98,-424 98,-454 325,-454 325,-424 98,-424"/>
<text text-anchor="start" x="105" y="-435.4" font-family="Arial" font-size="14.00" fill="#000000">document </text>
<text text-anchor="start" x="170.3548" y="-435.4" font-family="Arial" font-size="14.00" fill="#666666">[text]</text>
<polygon fill="none" stroke="#000000" points="98,-394 98,-424 325,-424 325,-394 98,-394"/>
<text text-anchor="start" x="104.9145" y="-405.4" font-family="Arial" font-size="14.00" fill="#000000">created_at </text>
<text text-anchor="start" x="174.9425" y="-405.4" font-family="Arial" font-size="14.00" fill="#666666">[datetime(6)]</text>
<text text-anchor="start" x="253.5063" y="-405.4" font-family="Arial" font-size="14.00" fill="#000000"> 作成日時</text>
<polygon fill="none" stroke="#000000" points="98,-364 98,-394 325,-394 325,-364 98,-364"/>
<text text-anchor="start" x="105" y="-375.4" font-family="Arial" font-size="14.00" fill="#000000">updated_at </text>
<text text-anchor="start" x="178.9326" y="-375.4" font-family="Arial" font-size="14.00" fill="#666666">[datetime(6)]</text>
<text text-anchor="start" x="257.4964" y="-375.4" font-family="Arial" font-size="14.00" fill="#000000"> 更新日時</text>
<polygon fill="none" stroke="#000000" stroke-width="3" points="96,-362.5 96,-621.5 326,-621.5 326,-362.5 96,-362.5"/>
</g>
<!-- users -->
<g id="node3" class="node">
<title>users</title>
<polygon fill="#efefef" stroke="transparent" points="98,-193 98,-239 325,-239 325,-193 98,-193"/>
<polygon fill="none" stroke="#000000" points="98,-193 98,-239 325,-239 325,-193 98,-193"/>
<text text-anchor="start" x="168.4893" y="-216.8" font-family="Arial Bold" font-size="18.00" fill="#000000">users</text>
<text text-anchor="start" x="212.4939" y="-216.8" font-family="Arial" font-size="14.00" fill="#000000"> </text>
<text text-anchor="start" x="216.3845" y="-216.8" font-family="Arial" font-size="14.00" fill="#666666">[table]</text>
<text text-anchor="start" x="171.712" y="-202.4" font-family="Arial" font-size="14.00" fill="#333333">ユーザー</text>
<polygon fill="none" stroke="#000000" points="98,-163 98,-193 325,-193 325,-163 98,-163"/>
<text text-anchor="start" x="105" y="-174.4" font-family="Arial" font-size="14.00" fill="#000000">id </text>
<text text-anchor="start" x="119.7798" y="-174.4" font-family="Arial" font-size="14.00" fill="#666666">[integer]</text>
<polygon fill="none" stroke="#000000" points="98,-133 98,-163 325,-163 325,-133 98,-133"/>
<text text-anchor="start" x="105" y="-144.4" font-family="Arial" font-size="14.00" fill="#000000">name </text>
<text text-anchor="start" x="143.899" y="-144.4" font-family="Arial" font-size="14.00" fill="#666666">[varchar]</text>
<text text-anchor="start" x="198.3492" y="-144.4" font-family="Arial" font-size="14.00" fill="#000000"> 氏名</text>
<polygon fill="none" stroke="#000000" points="98,-103 98,-133 325,-133 325,-103 98,-103"/>
<text text-anchor="start" x="105" y="-114.4" font-family="Arial" font-size="14.00" fill="#000000">age </text>
<text text-anchor="start" x="132.2384" y="-114.4" font-family="Arial" font-size="14.00" fill="#666666">[integer]</text>
<text text-anchor="start" x="182.8078" y="-114.4" font-family="Arial" font-size="14.00" fill="#000000"> 年齢</text>
<polygon fill="none" stroke="#000000" points="98,-73 98,-103 325,-103 325,-73 98,-73"/>
<text text-anchor="start" x="104.9145" y="-84.4" font-family="Arial" font-size="14.00" fill="#000000">created_at </text>
<text text-anchor="start" x="174.9425" y="-84.4" font-family="Arial" font-size="14.00" fill="#666666">[datetime(6)]</text>
<text text-anchor="start" x="253.5063" y="-84.4" font-family="Arial" font-size="14.00" fill="#000000"> 作成日時</text>
<polygon fill="none" stroke="#000000" points="98,-43 98,-73 325,-73 325,-43 98,-43"/>
<text text-anchor="start" x="105" y="-54.4" font-family="Arial" font-size="14.00" fill="#000000">updated_at </text>
<text text-anchor="start" x="178.9326" y="-54.4" font-family="Arial" font-size="14.00" fill="#666666">[datetime(6)]</text>
<text text-anchor="start" x="257.4964" y="-54.4" font-family="Arial" font-size="14.00" fill="#000000"> 更新日時</text>
</g>
<!-- blogs&#45;&gt;users -->
<g id="edge2" class="edge">
<title>blogs:user_id&#45;&gt;users:id</title>
<path fill="none" stroke="#000000" stroke-dasharray="5,2" d="M87.9605,-526.9387C20.1574,-498.1732 23.5039,-178 98,-178"/>
<polygon fill="#000000" stroke="#000000" points="88.2043,-526.9887 97.0949,-533.408 93.1022,-527.9943 98,-529 98,-529 98,-529 93.1022,-527.9943 98.9051,-524.592 88.2043,-526.9887 88.2043,-526.9887"/>
<text text-anchor="start" x="12.268" y="-539" font-family="Arial" font-size="10.00" fill="#000000">Detected Relation</text>
</g>
<!-- comments -->
<g id="node2" class="node">
<title>comments</title>
<polygon fill="#efefef" stroke="transparent" points="93,-955 93,-1001 331,-1001 331,-955 93,-955"/>
<polygon fill="none" stroke="#000000" points="93,-955 93,-1001 331,-1001 331,-955 93,-955"/>
<text text-anchor="start" x="149.489" y="-978.8" font-family="Arial Bold" font-size="18.00" fill="#000000">comments</text>
<text text-anchor="start" x="232.4942" y="-978.8" font-family="Arial" font-size="14.00" fill="#000000"> </text>
<text text-anchor="start" x="236.3848" y="-978.8" font-family="Arial" font-size="14.00" fill="#666666">[table]</text>
<text text-anchor="start" x="181.8034" y="-964.4" font-family="Arial" font-size="14.00" fill="#333333">コメント</text>
<polygon fill="none" stroke="#000000" points="93,-925 93,-955 331,-955 331,-925 93,-925"/>
<text text-anchor="start" x="100" y="-936.4" font-family="Arial" font-size="14.00" fill="#000000">id </text>
<text text-anchor="start" x="114.7798" y="-936.4" font-family="Arial" font-size="14.00" fill="#666666">[integer]</text>
<polygon fill="none" stroke="#000000" points="93,-895 93,-925 331,-925 331,-895 93,-895"/>
<text text-anchor="start" x="100" y="-906.4" font-family="Arial" font-size="14.00" fill="#000000">blog_id </text>
<text text-anchor="start" x="149.0168" y="-906.4" font-family="Arial" font-size="14.00" fill="#666666">[integer]</text>
<text text-anchor="start" x="199.5862" y="-906.4" font-family="Arial" font-size="14.00" fill="#000000"> ブログ</text>
<polygon fill="none" stroke="#000000" points="93,-865 93,-895 331,-895 331,-865 93,-865"/>
<text text-anchor="start" x="100" y="-876.4" font-family="Arial" font-size="14.00" fill="#000000">user_id </text>
<text text-anchor="start" x="149.7882" y="-876.4" font-family="Arial" font-size="14.00" fill="#666666">[integer]</text>
<text text-anchor="start" x="200.3576" y="-876.4" font-family="Arial" font-size="14.00" fill="#000000"> コメント者</text>
<polygon fill="none" stroke="#000000" points="93,-835 93,-865 331,-865 331,-835 93,-835"/>
<text text-anchor="start" x="100" y="-846.4" font-family="Arial" font-size="14.00" fill="#000000">document </text>
<text text-anchor="start" x="165.3548" y="-846.4" font-family="Arial" font-size="14.00" fill="#666666">[text]</text>
<text text-anchor="start" x="195.6998" y="-846.4" font-family="Arial" font-size="14.00" fill="#000000"> コメント</text>
<polygon fill="none" stroke="#000000" points="93,-805 93,-835 331,-835 331,-805 93,-805"/>
<text text-anchor="start" x="99.7186" y="-816.4" font-family="Arial" font-size="14.00" fill="#000000">published_dt </text>
<text text-anchor="start" x="182.9738" y="-816.4" font-family="Arial" font-size="14.00" fill="#666666">[datetime]</text>
<text text-anchor="start" x="244.4338" y="-816.4" font-family="Arial" font-size="14.00" fill="#000000"> コメント日</text>
<polygon fill="none" stroke="#000000" points="93,-775 93,-805 331,-805 331,-775 93,-775"/>
<text text-anchor="start" x="100" y="-786.4" font-family="Arial" font-size="14.00" fill="#000000">created_at </text>
<text text-anchor="start" x="170.028" y="-786.4" font-family="Arial" font-size="14.00" fill="#666666">[datetime(6)]</text>
<text text-anchor="start" x="248.5918" y="-786.4" font-family="Arial" font-size="14.00" fill="#000000"> 作成日時</text>
<polygon fill="none" stroke="#000000" points="93,-745 93,-775 331,-775 331,-745 93,-745"/>
<text text-anchor="start" x="100" y="-756.4" font-family="Arial" font-size="14.00" fill="#000000">updated_at </text>
<text text-anchor="start" x="173.9326" y="-756.4" font-family="Arial" font-size="14.00" fill="#666666">[datetime(6)]</text>
<text text-anchor="start" x="252.4964" y="-756.4" font-family="Arial" font-size="14.00" fill="#000000"> 更新日時</text>
</g>
<!-- comments&#45;&gt;blogs -->
<g id="edge1" class="edge">
<title>comments:blog_id&#45;&gt;blogs:id</title>
<path fill="none" stroke="#000000" stroke-dasharray="5,2" d="M82.7319,-909.3814C3.1212,-899.3376 35.2016,-769.4589 93,-702 160.891,-622.7617 257.109,-745.2383 325,-666 355.9415,-629.8869 372.5556,-559 325,-559"/>
<polygon fill="#000000" stroke="#000000" points="83.0181,-909.3986 92.7294,-914.4919 88.009,-909.6993 93,-910 93,-910 93,-910 88.009,-909.6993 93.2706,-905.5081 83.0181,-909.3986 83.0181,-909.3986"/>
<text text-anchor="start" x="7.268" y="-920" font-family="Arial" font-size="10.00" fill="#000000">Detected Relation</text>
</g>
</g>
</svg>
