<?xml version="1.0" encoding="UTF-8" standalone="no"?>
<!DOCTYPE svg PUBLIC "-//W3C//DTD SVG 1.1//EN"
 "http://www.w3.org/Graphics/SVG/1.1/DTD/svg11.dtd">
<!-- Generated by graphviz version 2.40.1 (20161225.0304)
 -->
<!-- Title: comments Pages: 1 -->
<svg width="652pt" height="734pt"
 viewBox="0.00 0.00 652.00 734.00" xmlns="http://www.w3.org/2000/svg" xmlns:xlink="http://www.w3.org/1999/xlink">
<g id="graph0" class="graph" transform="scale(1 1) rotate(0) translate(4 730)">
<title>comments</title>
<polygon fill="#ffffff" stroke="transparent" points="-4,4 -4,-730 648,-730 648,4 -4,4"/>
<!-- comments -->
<g id="node1" class="node">
<title>comments</title>
<polygon fill="#efefef" stroke="transparent" points="203.5,-634 203.5,-680 441.5,-680 441.5,-634 203.5,-634"/>
<polygon fill="none" stroke="#000000" points="203.5,-634 203.5,-680 441.5,-680 441.5,-634 203.5,-634"/>
<text text-anchor="start" x="259.989" y="-657.8" font-family="Arial Bold" font-size="18.00" fill="#000000">comments</text>
<text text-anchor="start" x="342.9942" y="-657.8" font-family="Arial" font-size="14.00" fill="#000000"> </text>
<text text-anchor="start" x="346.8848" y="-657.8" font-family="Arial" font-size="14.00" fill="#666666">[table]</text>
<text text-anchor="start" x="292.3034" y="-643.4" font-family="Arial" font-size="14.00" fill="#333333">コメント</text>
<polygon fill="none" stroke="#000000" points="203.5,-604 203.5,-634 441.5,-634 441.5,-604 203.5,-604"/>
<text text-anchor="start" x="210.5" y="-615.4" font-family="Arial" font-size="14.00" fill="#000000">id </text>
<text text-anchor="start" x="225.2798" y="-615.4" font-family="Arial" font-size="14.00" fill="#666666">[integer]</text>
<polygon fill="none" stroke="#000000" points="203.5,-574 203.5,-604 441.5,-604 441.5,-574 203.5,-574"/>
<text text-anchor="start" x="210.5" y="-585.4" font-family="Arial" font-size="14.00" fill="#000000">blog_id </text>
<text text-anchor="start" x="259.5168" y="-585.4" font-family="Arial" font-size="14.00" fill="#666666">[integer]</text>
<text text-anchor="start" x="310.0862" y="-585.4" font-family="Arial" font-size="14.00" fill="#000000"> ブログ</text>
<polygon fill="none" stroke="#000000" points="203.5,-544 203.5,-574 441.5,-574 441.5,-544 203.5,-544"/>
<text text-anchor="start" x="210.5" y="-555.4" font-family="Arial" font-size="14.00" fill="#000000">user_id </text>
<text text-anchor="start" x="260.2882" y="-555.4" font-family="Arial" font-size="14.00" fill="#666666">[integer]</text>
<text text-anchor="start" x="310.8576" y="-555.4" font-family="Arial" font-size="14.00" fill="#000000"> コメント者</text>
<polygon fill="none" stroke="#000000" points="203.5,-514 203.5,-544 441.5,-544 441.5,-514 203.5,-514"/>
<text text-anchor="start" x="210.5" y="-525.4" font-family="Arial" font-size="14.00" fill="#000000">document </text>
<text text-anchor="start" x="275.8548" y="-525.4" font-family="Arial" font-size="14.00" fill="#666666">[text]</text>
<text text-anchor="start" x="306.1998" y="-525.4" font-family="Arial" font-size="14.00" fill="#000000"> コメント</text>
<polygon fill="none" stroke="#000000" points="203.5,-484 203.5,-514 441.5,-514 441.5,-484 203.5,-484"/>
<text text-anchor="start" x="210.2186" y="-495.4" font-family="Arial" font-size="14.00" fill="#000000">published_dt </text>
<text text-anchor="start" x="293.4738" y="-495.4" font-family="Arial" font-size="14.00" fill="#666666">[datetime]</text>
<text text-anchor="start" x="354.9338" y="-495.4" font-family="Arial" font-size="14.00" fill="#000000"> コメント日</text>
<polygon fill="none" stroke="#000000" points="203.5,-454 203.5,-484 441.5,-484 441.5,-454 203.5,-454"/>
<text text-anchor="start" x="210.5" y="-465.4" font-family="Arial" font-size="14.00" fill="#000000">created_at </text>
<text text-anchor="start" x="280.528" y="-465.4" font-family="Arial" font-size="14.00" fill="#666666">[datetime(6)]</text>
<text text-anchor="start" x="359.0918" y="-465.4" font-family="Arial" font-size="14.00" fill="#000000"> 作成日時</text>
<polygon fill="none" stroke="#000000" points="203.5,-424 203.5,-454 441.5,-454 441.5,-424 203.5,-424"/>
<text text-anchor="start" x="210.5" y="-435.4" font-family="Arial" font-size="14.00" fill="#000000">updated_at </text>
<text text-anchor="start" x="284.4326" y="-435.4" font-family="Arial" font-size="14.00" fill="#666666">[datetime(6)]</text>
<text text-anchor="start" x="362.9964" y="-435.4" font-family="Arial" font-size="14.00" fill="#000000"> 更新日時</text>
<polygon fill="none" stroke="#000000" stroke-width="3" points="202,-422.5 202,-681.5 443,-681.5 443,-422.5 202,-422.5"/>
</g>
<!-- blogs -->
<g id="node2" class="node">
<title>blogs</title>
<polygon fill="#efefef" stroke="transparent" points="43.5,-253 43.5,-299 270.5,-299 270.5,-253 43.5,-253"/>
<polygon fill="none" stroke="#000000" points="43.5,-253 43.5,-299 270.5,-299 270.5,-253 43.5,-253"/>
<text text-anchor="start" x="114.4852" y="-276.8" font-family="Arial Bold" font-size="18.00" fill="#000000">blogs</text>
<text text-anchor="start" x="157.498" y="-276.8" font-family="Arial" font-size="14.00" fill="#000000"> </text>
<text text-anchor="start" x="161.3886" y="-276.8" font-family="Arial" font-size="14.00" fill="#666666">[table]</text>
<text text-anchor="start" x="137.1753" y="-262.4" font-family="Arial" font-size="14.00" fill="#333333">ブログ</text>
<polygon fill="none" stroke="#000000" points="43.5,-223 43.5,-253 270.5,-253 270.5,-223 43.5,-223"/>
<text text-anchor="start" x="50.5" y="-234.4" font-family="Arial" font-size="14.00" fill="#000000">id </text>
<text text-anchor="start" x="65.2798" y="-234.4" font-family="Arial" font-size="14.00" fill="#666666">[integer]</text>
<polygon fill="none" stroke="#000000" points="43.5,-193 43.5,-223 270.5,-223 270.5,-193 43.5,-193"/>
<text text-anchor="start" x="50.5" y="-204.4" font-family="Arial" font-size="14.00" fill="#000000">user_id </text>
<text text-anchor="start" x="100.2882" y="-204.4" font-family="Arial" font-size="14.00" fill="#666666">[integer]</text>
<text text-anchor="start" x="150.8576" y="-204.4" font-family="Arial" font-size="14.00" fill="#000000"> 作成者</text>
<polygon fill="none" stroke="#000000" points="43.5,-163 43.5,-193 270.5,-193 270.5,-163 43.5,-163"/>
<text text-anchor="start" x="50.5" y="-174.4" font-family="Arial" font-size="14.00" fill="#000000">published_dt </text>
<text text-anchor="start" x="133.7552" y="-174.4" font-family="Arial" font-size="14.00" fill="#666666">[date]</text>
<text text-anchor="start" x="168.7748" y="-174.4" font-family="Arial" font-size="14.00" fill="#000000"> 発行日</text>
<polygon fill="none" stroke="#000000" points="43.5,-133 43.5,-163 270.5,-163 270.5,-133 43.5,-133"/>
<text text-anchor="start" x="50.5" y="-144.4" font-family="Arial" font-size="14.00" fill="#000000">status </text>
<text text-anchor="start" x="91.737" y="-144.4" font-family="Arial" font-size="14.00" fill="#666666">[integer]</text>
<text text-anchor="start" x="142.3064" y="-144.4" font-family="Arial" font-size="14.00" fill="#000000"> ステータス</text>
<polygon fill="none" stroke="#000000" points="43.5,-103 43.5,-133 270.5,-133 270.5,-103 43.5,-103"/>
<text text-anchor="start" x="50.5" y="-114.4" font-family="Arial" font-size="14.00" fill="#000000">document </text>
<text text-anchor="start" x="115.8548" y="-114.4" font-family="Arial" font-size="14.00" fill="#666666">[text]</text>
<polygon fill="none" stroke="#000000" points="43.5,-73 43.5,-103 270.5,-103 270.5,-73 43.5,-73"/>
<text text-anchor="start" x="50.4145" y="-84.4" font-family="Arial" font-size="14.00" fill="#000000">created_at </text>
<text text-anchor="start" x="120.4425" y="-84.4" font-family="Arial" font-size="14.00" fill="#666666">[datetime(6)]</text>
<text text-anchor="start" x="199.0063" y="-84.4" font-family="Arial" font-size="14.00" fill="#000000"> 作成日時</text>
<polygon fill="none" stroke="#000000" points="43.5,-43 43.5,-73 270.5,-73 270.5,-43 43.5,-43"/>
<text text-anchor="start" x="50.5" y="-54.4" font-family="Arial" font-size="14.00" fill="#000000">updated_at </text>
<text text-anchor="start" x="124.4326" y="-54.4" font-family="Arial" font-size="14.00" fill="#666666">[datetime(6)]</text>
<text text-anchor="start" x="202.9964" y="-54.4" font-family="Arial" font-size="14.00" fill="#000000"> 更新日時</text>
</g>
<!-- comments&#45;&gt;blogs -->
<g id="edge1" class="edge">
<title>comments:blog_id&#45;&gt;blogs:id</title>
<path fill="none" stroke="#000000" stroke-dasharray="5,2" d="M193.1405,-588.4133C113.2927,-578.8801 157.256,-455.3442 203.5,-378 220.8472,-348.9864 253.1528,-371.0136 270.5,-342 294.2198,-302.328 316.7222,-238 270.5,-238"/>
<polygon fill="#000000" stroke="#000000" points="193.516,-588.4345 203.2455,-593.4928 198.508,-588.7172 203.5,-589 203.5,-589 203.5,-589 198.508,-588.7172 203.7545,-584.5072 193.516,-588.4345 193.516,-588.4345"/>
<text text-anchor="start" x="117.768" y="-599" font-family="Arial" font-size="10.00" fill="#000000">Detected Relation</text>
</g>
<!-- users -->
<g id="node3" class="node">
<title>users</title>
<polygon fill="#efefef" stroke="transparent" points="374.5,-223 374.5,-269 601.5,-269 601.5,-223 374.5,-223"/>
<polygon fill="none" stroke="#000000" points="374.5,-223 374.5,-269 601.5,-269 601.5,-223 374.5,-223"/>
<text text-anchor="start" x="444.9893" y="-246.8" font-family="Arial Bold" font-size="18.00" fill="#000000">users</text>
<text text-anchor="start" x="488.9939" y="-246.8" font-family="Arial" font-size="14.00" fill="#000000"> </text>
<text text-anchor="start" x="492.8845" y="-246.8" font-family="Arial" font-size="14.00" fill="#666666">[table]</text>
<text text-anchor="start" x="448.212" y="-232.4" font-family="Arial" font-size="14.00" fill="#333333">ユーザー</text>
<polygon fill="none" stroke="#000000" points="374.5,-193 374.5,-223 601.5,-223 601.5,-193 374.5,-193"/>
<text text-anchor="start" x="381.5" y="-204.4" font-family="Arial" font-size="14.00" fill="#000000">id </text>
<text text-anchor="start" x="396.2798" y="-204.4" font-family="Arial" font-size="14.00" fill="#666666">[integer]</text>
<polygon fill="none" stroke="#000000" points="374.5,-163 374.5,-193 601.5,-193 601.5,-163 374.5,-163"/>
<text text-anchor="start" x="381.5" y="-174.4" font-family="Arial" font-size="14.00" fill="#000000">name </text>
<text text-anchor="start" x="420.399" y="-174.4" font-family="Arial" font-size="14.00" fill="#666666">[varchar]</text>
<text text-anchor="start" x="474.8492" y="-174.4" font-family="Arial" font-size="14.00" fill="#000000"> 氏名</text>
<polygon fill="none" stroke="#000000" points="374.5,-133 374.5,-163 601.5,-163 601.5,-133 374.5,-133"/>
<text text-anchor="start" x="381.5" y="-144.4" font-family="Arial" font-size="14.00" fill="#000000">age </text>
<text text-anchor="start" x="408.7384" y="-144.4" font-family="Arial" font-size="14.00" fill="#666666">[integer]</text>
<text text-anchor="start" x="459.3078" y="-144.4" font-family="Arial" font-size="14.00" fill="#000000"> 年齢</text>
<polygon fill="none" stroke="#000000" points="374.5,-103 374.5,-133 601.5,-133 601.5,-103 374.5,-103"/>
<text text-anchor="start" x="381.4145" y="-114.4" font-family="Arial" font-size="14.00" fill="#000000">created_at </text>
<text text-anchor="start" x="451.4425" y="-114.4" font-family="Arial" font-size="14.00" fill="#666666">[datetime(6)]</text>
<text text-anchor="start" x="530.0063" y="-114.4" font-family="Arial" font-size="14.00" fill="#000000"> 作成日時</text>
<polygon fill="none" stroke="#000000" points="374.5,-73 374.5,-103 601.5,-103 601.5,-73 374.5,-73"/>
<text text-anchor="start" x="381.5" y="-84.4" font-family="Arial" font-size="14.00" fill="#000000">updated_at </text>
<text text-anchor="start" x="455.4326" y="-84.4" font-family="Arial" font-size="14.00" fill="#666666">[datetime(6)]</text>
<text text-anchor="start" x="533.9964" y="-84.4" font-family="Arial" font-size="14.00" fill="#000000"> 更新日時</text>
</g>
<!-- comments&#45;&gt;users -->
<g id="edge2" class="edge">
<title>comments:user_id&#45;&gt;users:id</title>
<path fill="none" stroke="#000000" stroke-dasharray="5,2" d="M451.6319,-558.8917C717.3666,-553.0707 375.601,-314.63 374.5,-312 356.6511,-269.363 328.2778,-208 374.5,-208"/>
<polygon fill="#000000" stroke="#000000" points="451.4994,-558.893 441.4518,-554.5003 446.4997,-558.9465 441.5,-559 441.5,-559 441.5,-559 446.4997,-558.9465 441.5482,-563.4997 451.4994,-558.893 451.4994,-558.893"/>
<text text-anchor="start" x="448.768" y="-569" font-family="Arial" font-size="10.00" fill="#000000">Detected Relation</text>
</g>
</g>
</svg>
