<?xml version="1.0" encoding="UTF-8" standalone="no"?>
<!DOCTYPE svg PUBLIC "-//W3C//DTD SVG 1.1//EN"
 "http://www.w3.org/Graphics/SVG/1.1/DTD/svg11.dtd">
<!-- Generated by graphviz version 2.40.1 (20161225.0304)
 -->
<!-- Title: development.sqlite3 Pages: 1 -->
<svg width="469pt" height="1046pt"
 viewBox="0.00 0.00 468.50 1046.00" xmlns="http://www.w3.org/2000/svg" xmlns:xlink="http://www.w3.org/1999/xlink">
<g id="graph0" class="graph" transform="scale(1 1) rotate(0) translate(4 1042)">
<title>development.sqlite3</title>
<polygon fill="#ffffff" stroke="transparent" points="-4,4 -4,-1042 464.5,-1042 464.5,4 -4,4"/>
<!-- users -->
<g id="node1" class="node">
<title>users</title>
<polygon fill="#efefef" stroke="transparent" points="98,-193 98,-239 325,-239 325,-193 98,-193"/>
<polygon fill="none" stroke="#000000" points="98,-193 98,-239 325,-239 325,-193 98,-193"/>
<text text-anchor="start" x="168.4893" y="-216.8" font-family="Arial Bold" font-size="18.00" fill="#000000">users</text>
<text text-anchor="start" x="212.4939" y="-216.8" font-family="Arial" font-size="14.00" fill="#000000"> </text>
<text text-anchor="start" x="216.3845" y="-216.8" font-family="Arial" font-size="14.00" fill="#666666">[table]</text>
<text text-anchor="start" x="171.712" y="-202.4" font-family="Arial" font-size="14.00" fill="#333333">ユーザー</text>
<polygon fill="none" stroke="#000000" points="98,-163 98,-193 325,-193 325,-163 98,-163"/>
<text text-anchor="start" x="105" y="-174.4" font-family="Arial" font-size="14.00" fill="#000000">id </text>
<text text-anchor="start" x="119.7798" y="-174.4" font-family="Arial" font-size="14.00" fill="#666666">[integer]</text>
<polygon fill="none" stroke="#000000" points="98,-133 98,-163 325,-163 325,-133 98,-133"/>
<text text-anchor="start" x="105" y="-144.4" font-family="Arial" font-size="14.00" fill="#000000">name </text>
<text text-anchor="start" x="143.899" y="-144.4" font-family="Arial" font-size="14.00" fill="#666666">[varchar]</text>
<text text-anchor="start" x="198.3492" y="-144.4" font-family="Arial" font-size="14.00" fill="#000000"> 氏名</text>
<polygon fill="none" stroke="#000000" points="98,-103 98,-133 325,-133 325,-103 98,-103"/>
<text text-anchor="start" x="105" y="-114.4" font-family="Arial" font-size="14.00" fill="#000000">age </text>
<text text-anchor="start" x="132.2384" y="-114.4" font-family="Arial" font-size="14.00" fill="#666666">[integer]</text>
<text text-anchor="start" x="182.8078" y="-114.4" font-family="Arial" font-size="14.00" fill="#000000"> 年齢</text>
<polygon fill="none" stroke="#000000" points="98,-73 98,-103 325,-103 325,-73 98,-73"/>
<text text-anchor="start" x="104.9145" y="-84.4" font-family="Arial" font-size="14.00" fill="#000000">created_at </text>
<text text-anchor="start" x="174.9425" y="-84.4" font-family="Arial" font-size="14.00" fill="#666666">[datetime(6)]</text>
<text text-anchor="start" x="253.5063" y="-84.4" font-family="Arial" font-size="14.00" fill="#000000"> 作成日時</text>
<polygon fill="none" stroke="#000000" points="98,-43 98,-73 325,-73 325,-43 98,-43"/>
<text text-anchor="start" x="105" y="-54.4" font-family="Arial" font-size="14.00" fill="#000000">updated_at </text>
<text text-anchor="start" x="178.9326" y="-54.4" font-family="Arial" font-size="14.00" fill="#666666">[datetime(6)]</text>
<text text-anchor="start" x="257.4964" y="-54.4" font-family="Arial" font-size="14.00" fill="#000000"> 更新日時</text>
</g>
<!-- blogs -->
<g id="node2" class="node">
<title>blogs</title>
<polygon fill="#efefef" stroke="transparent" points="191,-571 191,-617 418,-617 418,-571 191,-571"/>
<polygon fill="none" stroke="#000000" points="191,-571 191,-617 418,-617 418,-571 191,-571"/>
<text text-anchor="start" x="261.9852" y="-594.8" font-family="Arial Bold" font-size="18.00" fill="#000000">blogs</text>
<text text-anchor="start" x="304.998" y="-594.8" font-family="Arial" font-size="14.00" fill="#000000"> </text>
<text text-anchor="start" x="308.8886" y="-594.8" font-family="Arial" font-size="14.00" fill="#666666">[table]</text>
<text text-anchor="start" x="284.6753" y="-580.4" font-family="Arial" font-size="14.00" fill="#333333">ブログ</text>
<polygon fill="none" stroke="#000000" points="191,-541 191,-571 418,-571 418,-541 191,-541"/>
<text text-anchor="start" x="198" y="-552.4" font-family="Arial" font-size="14.00" fill="#000000">id </text>
<text text-anchor="start" x="212.7798" y="-552.4" font-family="Arial" font-size="14.00" fill="#666666">[integer]</text>
<polygon fill="none" stroke="#000000" points="191,-511 191,-541 418,-541 418,-511 191,-511"/>
<text text-anchor="start" x="198" y="-522.4" font-family="Arial" font-size="14.00" fill="#000000">user_id </text>
<text text-anchor="start" x="247.7882" y="-522.4" font-family="Arial" font-size="14.00" fill="#666666">[integer]</text>
<text text-anchor="start" x="298.3576" y="-522.4" font-family="Arial" font-size="14.00" fill="#000000"> 作成者</text>
<polygon fill="none" stroke="#000000" points="191,-481 191,-511 418,-511 418,-481 191,-481"/>
<text text-anchor="start" x="198" y="-492.4" font-family="Arial" font-size="14.00" fill="#000000">published_dt </text>
<text text-anchor="start" x="281.2552" y="-492.4" font-family="Arial" font-size="14.00" fill="#666666">[date]</text>
<text text-anchor="start" x="316.2748" y="-492.4" font-family="Arial" font-size="14.00" fill="#000000"> 発行日</text>
<polygon fill="none" stroke="#000000" points="191,-451 191,-481 418,-481 418,-451 191,-451"/>
<text text-anchor="start" x="198" y="-462.4" font-family="Arial" font-size="14.00" fill="#000000">status </text>
<text text-anchor="start" x="239.237" y="-462.4" font-family="Arial" font-size="14.00" fill="#666666">[integer]</text>
<text text-anchor="start" x="289.8064" y="-462.4" font-family="Arial" font-size="14.00" fill="#000000"> ステータス</text>
<polygon fill="none" stroke="#000000" points="191,-421 191,-451 418,-451 418,-421 191,-421"/>
<text text-anchor="start" x="198" y="-432.4" font-family="Arial" font-size="14.00" fill="#000000">document </text>
<text text-anchor="start" x="263.3548" y="-432.4" font-family="Arial" font-size="14.00" fill="#666666">[text]</text>
<polygon fill="none" stroke="#000000" points="191,-391 191,-421 418,-421 418,-391 191,-391"/>
<text text-anchor="start" x="197.9145" y="-402.4" font-family="Arial" font-size="14.00" fill="#000000">created_at </text>
<text text-anchor="start" x="267.9425" y="-402.4" font-family="Arial" font-size="14.00" fill="#666666">[datetime(6)]</text>
<text text-anchor="start" x="346.5063" y="-402.4" font-family="Arial" font-size="14.00" fill="#000000"> 作成日時</text>
<polygon fill="none" stroke="#000000" points="191,-361 191,-391 418,-391 418,-361 191,-361"/>
<text text-anchor="start" x="198" y="-372.4" font-family="Arial" font-size="14.00" fill="#000000">updated_at </text>
<text text-anchor="start" x="271.9326" y="-372.4" font-family="Arial" font-size="14.00" fill="#666666">[datetime(6)]</text>
<text text-anchor="start" x="350.4964" y="-372.4" font-family="Arial" font-size="14.00" fill="#000000"> 更新日時</text>
</g>
<!-- blogs&#45;&gt;users -->
<g id="edge1" class="edge">
<title>blogs:user_id&#45;&gt;users:id</title>
<path fill="none" stroke="#000000" stroke-dasharray="5,2" d="M180.749,-525.3953C101.4137,-515.5747 136.945,-388.4941 191,-318 228.5246,-269.0636 287.4754,-330.9364 325,-282 353.1262,-245.3202 371.2222,-178 325,-178"/>
<polygon fill="#000000" stroke="#000000" points="181.0174,-525.4111 190.735,-530.4922 186.0087,-525.7055 191,-526 191,-526 191,-526 186.0087,-525.7055 191.265,-521.5078 181.0174,-525.4111 181.0174,-525.4111"/>
<text text-anchor="start" x="105.268" y="-536" font-family="Arial" font-size="10.00" fill="#000000">Detected Relation</text>
</g>
<!-- comments -->
<g id="node3" class="node">
<title>comments</title>
<polygon fill="#efefef" stroke="transparent" points="93,-949 93,-995 331,-995 331,-949 93,-949"/>
<polygon fill="none" stroke="#000000" points="93,-949 93,-995 331,-995 331,-949 93,-949"/>
<text text-anchor="start" x="149.489" y="-972.8" font-family="Arial Bold" font-size="18.00" fill="#000000">comments</text>
<text text-anchor="start" x="232.4942" y="-972.8" font-family="Arial" font-size="14.00" fill="#000000"> </text>
<text text-anchor="start" x="236.3848" y="-972.8" font-family="Arial" font-size="14.00" fill="#666666">[table]</text>
<text text-anchor="start" x="181.8034" y="-958.4" font-family="Arial" font-size="14.00" fill="#333333">コメント</text>
<polygon fill="none" stroke="#000000" points="93,-919 93,-949 331,-949 331,-919 93,-919"/>
<text text-anchor="start" x="100" y="-930.4" font-family="Arial" font-size="14.00" fill="#000000">id </text>
<text text-anchor="start" x="114.7798" y="-930.4" font-family="Arial" font-size="14.00" fill="#666666">[integer]</text>
<polygon fill="none" stroke="#000000" points="93,-889 93,-919 331,-919 331,-889 93,-889"/>
<text text-anchor="start" x="100" y="-900.4" font-family="Arial" font-size="14.00" fill="#000000">blog_id </text>
<text text-anchor="start" x="149.0168" y="-900.4" font-family="Arial" font-size="14.00" fill="#666666">[integer]</text>
<text text-anchor="start" x="199.5862" y="-900.4" font-family="Arial" font-size="14.00" fill="#000000"> ブログ</text>
<polygon fill="none" stroke="#000000" points="93,-859 93,-889 331,-889 331,-859 93,-859"/>
<text text-anchor="start" x="100" y="-870.4" font-family="Arial" font-size="14.00" fill="#000000">user_id </text>
<text text-anchor="start" x="149.7882" y="-870.4" font-family="Arial" font-size="14.00" fill="#666666">[integer]</text>
<text text-anchor="start" x="200.3576" y="-870.4" font-family="Arial" font-size="14.00" fill="#000000"> コメント者</text>
<polygon fill="none" stroke="#000000" points="93,-829 93,-859 331,-859 331,-829 93,-829"/>
<text text-anchor="start" x="100" y="-840.4" font-family="Arial" font-size="14.00" fill="#000000">document </text>
<text text-anchor="start" x="165.3548" y="-840.4" font-family="Arial" font-size="14.00" fill="#666666">[text]</text>
<text text-anchor="start" x="195.6998" y="-840.4" font-family="Arial" font-size="14.00" fill="#000000"> コメント</text>
<polygon fill="none" stroke="#000000" points="93,-799 93,-829 331,-829 331,-799 93,-799"/>
<text text-anchor="start" x="99.7186" y="-810.4" font-family="Arial" font-size="14.00" fill="#000000">published_dt </text>
<text text-anchor="start" x="182.9738" y="-810.4" font-family="Arial" font-size="14.00" fill="#666666">[datetime]</text>
<text text-anchor="start" x="244.4338" y="-810.4" font-family="Arial" font-size="14.00" fill="#000000"> コメント日</text>
<polygon fill="none" stroke="#000000" points="93,-769 93,-799 331,-799 331,-769 93,-769"/>
<text text-anchor="start" x="100" y="-780.4" font-family="Arial" font-size="14.00" fill="#000000">created_at </text>
<text text-anchor="start" x="170.028" y="-780.4" font-family="Arial" font-size="14.00" fill="#666666">[datetime(6)]</text>
<text text-anchor="start" x="248.5918" y="-780.4" font-family="Arial" font-size="14.00" fill="#000000"> 作成日時</text>
<polygon fill="none" stroke="#000000" points="93,-739 93,-769 331,-769 331,-739 93,-739"/>
<text text-anchor="start" x="100" y="-750.4" font-family="Arial" font-size="14.00" fill="#000000">updated_at </text>
<text text-anchor="start" x="173.9326" y="-750.4" font-family="Arial" font-size="14.00" fill="#666666">[datetime(6)]</text>
<text text-anchor="start" x="252.4964" y="-750.4" font-family="Arial" font-size="14.00" fill="#000000"> 更新日時</text>
</g>
<!-- comments&#45;&gt;users -->
<g id="edge3" class="edge">
<title>comments:user_id&#45;&gt;users:id</title>
<path fill="none" stroke="#000000" stroke-dasharray="5,2" d="M83.4862,-870.2553C16.2279,-815.4725 23.9877,-178 98,-178"/>
<polygon fill="#000000" stroke="#000000" points="83.6949,-870.3374 91.3518,-878.1873 88.3474,-872.1687 93,-874 93,-874 93,-874 88.3474,-872.1687 94.6482,-869.8127 83.6949,-870.3374 83.6949,-870.3374"/>
<text text-anchor="start" x="7.268" y="-884" font-family="Arial" font-size="10.00" fill="#000000">Detected Relation</text>
</g>
<!-- comments&#45;&gt;blogs -->
<g id="edge2" class="edge">
<title>comments:blog_id&#45;&gt;blogs:id</title>
<path fill="none" stroke="#000000" stroke-dasharray="5,2" d="M341.2527,-903.394C420.6159,-893.5519 385.4339,-766.202 331,-696 291.6321,-645.2282 230.3679,-710.7718 191,-660 162.6767,-623.4721 144.7778,-556 191,-556"/>
<polygon fill="#000000" stroke="#000000" points="340.9826,-903.4099 330.7344,-899.5078 335.9913,-903.7049 331,-904 331,-904 331,-904 335.9913,-903.7049 331.2656,-908.4922 340.9826,-903.4099 340.9826,-903.4099"/>
<text text-anchor="start" x="338.268" y="-914" font-family="Arial" font-size="10.00" fill="#000000">Detected Relation</text>
</g>
</g>
</svg>
