<?xml version="1.0" encoding="UTF-8" standalone="no"?>
<!DOCTYPE svg PUBLIC "-//W3C//DTD SVG 1.1//EN"
 "http://www.w3.org/Graphics/SVG/1.1/DTD/svg11.dtd">
<!-- Generated by graphviz version 2.40.1 (20161225.0304)
 -->
<!-- Title: users Pages: 1 -->
<svg width="664pt" height="674pt"
 viewBox="0.00 0.00 663.50 674.00" xmlns="http://www.w3.org/2000/svg" xmlns:xlink="http://www.w3.org/1999/xlink">
<g id="graph0" class="graph" transform="scale(1 1) rotate(0) translate(4 670)">
<title>users</title>
<polygon fill="#ffffff" stroke="transparent" points="-4,4 -4,-670 659.5,-670 659.5,4 -4,4"/>
<!-- users -->
<g id="node1" class="node">
<title>users</title>
<polygon fill="#efefef" stroke="transparent" points="211.5,-196 211.5,-242 438.5,-242 438.5,-196 211.5,-196"/>
<polygon fill="none" stroke="#000000" points="211.5,-196 211.5,-242 438.5,-242 438.5,-196 211.5,-196"/>
<text text-anchor="start" x="281.9893" y="-219.8" font-family="Arial Bold" font-size="18.00" fill="#000000">users</text>
<text text-anchor="start" x="325.9939" y="-219.8" font-family="Arial" font-size="14.00" fill="#000000"> </text>
<text text-anchor="start" x="329.8845" y="-219.8" font-family="Arial" font-size="14.00" fill="#666666">[table]</text>
<text text-anchor="start" x="285.212" y="-205.4" font-family="Arial" font-size="14.00" fill="#333333">ユーザー</text>
<polygon fill="none" stroke="#000000" points="211.5,-166 211.5,-196 438.5,-196 438.5,-166 211.5,-166"/>
<text text-anchor="start" x="218.5" y="-177.4" font-family="Arial" font-size="14.00" fill="#000000">id </text>
<text text-anchor="start" x="233.2798" y="-177.4" font-family="Arial" font-size="14.00" fill="#666666">[integer]</text>
<polygon fill="none" stroke="#000000" points="211.5,-136 211.5,-166 438.5,-166 438.5,-136 211.5,-136"/>
<text text-anchor="start" x="218.5" y="-147.4" font-family="Arial" font-size="14.00" fill="#000000">name </text>
<text text-anchor="start" x="257.399" y="-147.4" font-family="Arial" font-size="14.00" fill="#666666">[varchar]</text>
<text text-anchor="start" x="311.8492" y="-147.4" font-family="Arial" font-size="14.00" fill="#000000"> 氏名</text>
<polygon fill="none" stroke="#000000" points="211.5,-106 211.5,-136 438.5,-136 438.5,-106 211.5,-106"/>
<text text-anchor="start" x="218.5" y="-117.4" font-family="Arial" font-size="14.00" fill="#000000">age </text>
<text text-anchor="start" x="245.7384" y="-117.4" font-family="Arial" font-size="14.00" fill="#666666">[integer]</text>
<text text-anchor="start" x="296.3078" y="-117.4" font-family="Arial" font-size="14.00" fill="#000000"> 年齢</text>
<polygon fill="none" stroke="#000000" points="211.5,-76 211.5,-106 438.5,-106 438.5,-76 211.5,-76"/>
<text text-anchor="start" x="218.4145" y="-87.4" font-family="Arial" font-size="14.00" fill="#000000">created_at </text>
<text text-anchor="start" x="288.4425" y="-87.4" font-family="Arial" font-size="14.00" fill="#666666">[datetime(6)]</text>
<text text-anchor="start" x="367.0063" y="-87.4" font-family="Arial" font-size="14.00" fill="#000000"> 作成日時</text>
<polygon fill="none" stroke="#000000" points="211.5,-46 211.5,-76 438.5,-76 438.5,-46 211.5,-46"/>
<text text-anchor="start" x="218.5" y="-57.4" font-family="Arial" font-size="14.00" fill="#000000">updated_at </text>
<text text-anchor="start" x="292.4326" y="-57.4" font-family="Arial" font-size="14.00" fill="#666666">[datetime(6)]</text>
<text text-anchor="start" x="370.9964" y="-57.4" font-family="Arial" font-size="14.00" fill="#000000"> 更新日時</text>
<polygon fill="none" stroke="#000000" stroke-width="3" points="209.5,-44.5 209.5,-243.5 439.5,-243.5 439.5,-44.5 209.5,-44.5"/>
</g>
<!-- blogs -->
<g id="node2" class="node">
<title>blogs</title>
<polygon fill="#efefef" stroke="transparent" points="43.5,-577 43.5,-623 270.5,-623 270.5,-577 43.5,-577"/>
<polygon fill="none" stroke="#000000" points="43.5,-577 43.5,-623 270.5,-623 270.5,-577 43.5,-577"/>
<text text-anchor="start" x="114.4852" y="-600.8" font-family="Arial Bold" font-size="18.00" fill="#000000">blogs</text>
<text text-anchor="start" x="157.498" y="-600.8" font-family="Arial" font-size="14.00" fill="#000000"> </text>
<text text-anchor="start" x="161.3886" y="-600.8" font-family="Arial" font-size="14.00" fill="#666666">[table]</text>
<text text-anchor="start" x="137.1753" y="-586.4" font-family="Arial" font-size="14.00" fill="#333333">ブログ</text>
<polygon fill="none" stroke="#000000" points="43.5,-547 43.5,-577 270.5,-577 270.5,-547 43.5,-547"/>
<text text-anchor="start" x="50.5" y="-558.4" font-family="Arial" font-size="14.00" fill="#000000">id </text>
<text text-anchor="start" x="65.2798" y="-558.4" font-family="Arial" font-size="14.00" fill="#666666">[integer]</text>
<polygon fill="none" stroke="#000000" points="43.5,-517 43.5,-547 270.5,-547 270.5,-517 43.5,-517"/>
<text text-anchor="start" x="50.5" y="-528.4" font-family="Arial" font-size="14.00" fill="#000000">user_id </text>
<text text-anchor="start" x="100.2882" y="-528.4" font-family="Arial" font-size="14.00" fill="#666666">[integer]</text>
<text text-anchor="start" x="150.8576" y="-528.4" font-family="Arial" font-size="14.00" fill="#000000"> 作成者</text>
<polygon fill="none" stroke="#000000" points="43.5,-487 43.5,-517 270.5,-517 270.5,-487 43.5,-487"/>
<text text-anchor="start" x="50.5" y="-498.4" font-family="Arial" font-size="14.00" fill="#000000">published_dt </text>
<text text-anchor="start" x="133.7552" y="-498.4" font-family="Arial" font-size="14.00" fill="#666666">[date]</text>
<text text-anchor="start" x="168.7748" y="-498.4" font-family="Arial" font-size="14.00" fill="#000000"> 発行日</text>
<polygon fill="none" stroke="#000000" points="43.5,-457 43.5,-487 270.5,-487 270.5,-457 43.5,-457"/>
<text text-anchor="start" x="50.5" y="-468.4" font-family="Arial" font-size="14.00" fill="#000000">status </text>
<text text-anchor="start" x="91.737" y="-468.4" font-family="Arial" font-size="14.00" fill="#666666">[integer]</text>
<text text-anchor="start" x="142.3064" y="-468.4" font-family="Arial" font-size="14.00" fill="#000000"> ステータス</text>
<polygon fill="none" stroke="#000000" points="43.5,-427 43.5,-457 270.5,-457 270.5,-427 43.5,-427"/>
<text text-anchor="start" x="50.5" y="-438.4" font-family="Arial" font-size="14.00" fill="#000000">document </text>
<text text-anchor="start" x="115.8548" y="-438.4" font-family="Arial" font-size="14.00" fill="#666666">[text]</text>
<polygon fill="none" stroke="#000000" points="43.5,-397 43.5,-427 270.5,-427 270.5,-397 43.5,-397"/>
<text text-anchor="start" x="50.4145" y="-408.4" font-family="Arial" font-size="14.00" fill="#000000">created_at </text>
<text text-anchor="start" x="120.4425" y="-408.4" font-family="Arial" font-size="14.00" fill="#666666">[datetime(6)]</text>
<text text-anchor="start" x="199.0063" y="-408.4" font-family="Arial" font-size="14.00" fill="#000000"> 作成日時</text>
<polygon fill="none" stroke="#000000" points="43.5,-367 43.5,-397 270.5,-397 270.5,-367 43.5,-367"/>
<text text-anchor="start" x="50.5" y="-378.4" font-family="Arial" font-size="14.00" fill="#000000">updated_at </text>
<text text-anchor="start" x="124.4326" y="-378.4" font-family="Arial" font-size="14.00" fill="#666666">[datetime(6)]</text>
<text text-anchor="start" x="202.9964" y="-378.4" font-family="Arial" font-size="14.00" fill="#000000"> 更新日時</text>
</g>
<!-- blogs&#45;&gt;users -->
<g id="edge1" class="edge">
<title>blogs:user_id&#45;&gt;users:id</title>
<path fill="none" stroke="#000000" stroke-dasharray="5,2" d="M280.0886,-529.0702C313.0409,-506.5755 291.3563,-361.1581 270.5,-324 255.4648,-297.2129 226.5352,-314.7871 211.5,-288 188.2236,-246.5302 163.9444,-181 211.5,-181"/>
<polygon fill="#000000" stroke="#000000" points="280.0635,-529.0778 269.185,-527.6964 275.2818,-530.5389 270.5,-532 270.5,-532 270.5,-532 275.2818,-530.5389 271.815,-536.3036 280.0635,-529.0778 280.0635,-529.0778"/>
<text text-anchor="start" x="277.768" y="-542" font-family="Arial" font-size="10.00" fill="#000000">Detected Relation</text>
</g>
<!-- comments -->
<g id="node3" class="node">
<title>comments</title>
<polygon fill="#efefef" stroke="transparent" points="374.5,-577 374.5,-623 612.5,-623 612.5,-577 374.5,-577"/>
<polygon fill="none" stroke="#000000" points="374.5,-577 374.5,-623 612.5,-623 612.5,-577 374.5,-577"/>
<text text-anchor="start" x="430.989" y="-600.8" font-family="Arial Bold" font-size="18.00" fill="#000000">comments</text>
<text text-anchor="start" x="513.9942" y="-600.8" font-family="Arial" font-size="14.00" fill="#000000"> </text>
<text text-anchor="start" x="517.8848" y="-600.8" font-family="Arial" font-size="14.00" fill="#666666">[table]</text>
<text text-anchor="start" x="463.3034" y="-586.4" font-family="Arial" font-size="14.00" fill="#333333">コメント</text>
<polygon fill="none" stroke="#000000" points="374.5,-547 374.5,-577 612.5,-577 612.5,-547 374.5,-547"/>
<text text-anchor="start" x="381.5" y="-558.4" font-family="Arial" font-size="14.00" fill="#000000">id </text>
<text text-anchor="start" x="396.2798" y="-558.4" font-family="Arial" font-size="14.00" fill="#666666">[integer]</text>
<polygon fill="none" stroke="#000000" points="374.5,-517 374.5,-547 612.5,-547 612.5,-517 374.5,-517"/>
<text text-anchor="start" x="381.5" y="-528.4" font-family="Arial" font-size="14.00" fill="#000000">blog_id </text>
<text text-anchor="start" x="430.5168" y="-528.4" font-family="Arial" font-size="14.00" fill="#666666">[integer]</text>
<text text-anchor="start" x="481.0862" y="-528.4" font-family="Arial" font-size="14.00" fill="#000000"> ブログ</text>
<polygon fill="none" stroke="#000000" points="374.5,-487 374.5,-517 612.5,-517 612.5,-487 374.5,-487"/>
<text text-anchor="start" x="381.5" y="-498.4" font-family="Arial" font-size="14.00" fill="#000000">user_id </text>
<text text-anchor="start" x="431.2882" y="-498.4" font-family="Arial" font-size="14.00" fill="#666666">[integer]</text>
<text text-anchor="start" x="481.8576" y="-498.4" font-family="Arial" font-size="14.00" fill="#000000"> コメント者</text>
<polygon fill="none" stroke="#000000" points="374.5,-457 374.5,-487 612.5,-487 612.5,-457 374.5,-457"/>
<text text-anchor="start" x="381.5" y="-468.4" font-family="Arial" font-size="14.00" fill="#000000">document </text>
<text text-anchor="start" x="446.8548" y="-468.4" font-family="Arial" font-size="14.00" fill="#666666">[text]</text>
<text text-anchor="start" x="477.1998" y="-468.4" font-family="Arial" font-size="14.00" fill="#000000"> コメント</text>
<polygon fill="none" stroke="#000000" points="374.5,-427 374.5,-457 612.5,-457 612.5,-427 374.5,-427"/>
<text text-anchor="start" x="381.2186" y="-438.4" font-family="Arial" font-size="14.00" fill="#000000">published_dt </text>
<text text-anchor="start" x="464.4738" y="-438.4" font-family="Arial" font-size="14.00" fill="#666666">[datetime]</text>
<text text-anchor="start" x="525.9338" y="-438.4" font-family="Arial" font-size="14.00" fill="#000000"> コメント日</text>
<polygon fill="none" stroke="#000000" points="374.5,-397 374.5,-427 612.5,-427 612.5,-397 374.5,-397"/>
<text text-anchor="start" x="381.5" y="-408.4" font-family="Arial" font-size="14.00" fill="#000000">created_at </text>
<text text-anchor="start" x="451.528" y="-408.4" font-family="Arial" font-size="14.00" fill="#666666">[datetime(6)]</text>
<text text-anchor="start" x="530.0918" y="-408.4" font-family="Arial" font-size="14.00" fill="#000000"> 作成日時</text>
<polygon fill="none" stroke="#000000" points="374.5,-367 374.5,-397 612.5,-397 612.5,-367 374.5,-367"/>
<text text-anchor="start" x="381.5" y="-378.4" font-family="Arial" font-size="14.00" fill="#000000">updated_at </text>
<text text-anchor="start" x="455.4326" y="-378.4" font-family="Arial" font-size="14.00" fill="#666666">[datetime(6)]</text>
<text text-anchor="start" x="533.9964" y="-378.4" font-family="Arial" font-size="14.00" fill="#000000"> 更新日時</text>
</g>
<!-- comments&#45;&gt;users -->
<g id="edge2" class="edge">
<title>comments:user_id&#45;&gt;users:id</title>
<path fill="none" stroke="#000000" stroke-dasharray="5,2" d="M364.1426,-501.2924C299.063,-491.8057 336.4332,-389.0884 374.5,-324 390.976,-295.8286 422.024,-316.1714 438.5,-288 462.5082,-246.9496 486.0556,-181 438.5,-181"/>
<polygon fill="#000000" stroke="#000000" points="364.5233,-501.3183 374.1932,-506.4895 369.5116,-501.6591 374.5,-502 374.5,-502 374.5,-502 369.5116,-501.6591 374.8068,-497.5105 364.5233,-501.3183 364.5233,-501.3183"/>
<text text-anchor="start" x="288.768" y="-512" font-family="Arial" font-size="10.00" fill="#000000">Detected Relation</text>
</g>
</g>
</svg>
